<svg version="1.0" xmlns="http://www.w3.org/2000/svg" width="200.000000pt" height="200.000000pt" viewBox="0 0 200.000000 200.000000" preserveAspectRatio="xMidYMid meet"><g transform="translate(0.000000,200.000000) scale(0.100000,-0.100000)" fill="gray" stroke="none"><path d="M876 1990 c-139 -17 -274 -64 -397 -137 -220 -131 -386 -359 -451 -621 -33 -132 -31 -350 5 -486 109 -411 463 -707 888 -742 l79 -7 0 50 0 50 -75 7 c-236 21 -463 139 -613 317 -74 88 -154 241 -184 354 -31 116 -31 337 0 450 112 414 496 695 917 672 451 -25 810 -371 851 -822 l7 -75 50 0 50 0 -6 48 c-4 26 -11 85 -17 130 -48 372 -379 718 -760 796 -97 19 -256 27 -344 16z"/><path d="M850 1735 c-198 -44 -361 -154 -470 -315 -150 -220 -170 -506 -55 -745 116 -239 345 -397 611 -422 l64 -6 0 49 0 50 -84 11 c-311 42 -545 295 -563 608 -6 115 14 212 67 324 80 167 261 307 445 346 146 31 285 12 425 -56 119 -59 230 -170 289 -289 40 -83 70 -192 71 -257 0 -33 0 -33 51 -33 l52 0 -6 64 c-29 313 -251 579 -552 661 -85 23 -264 28 -345 10z"/><path d="M932 1483 c-91 -45 -118 -172 -51 -247 35 -41 63 -53 159 -69 72 -12 76 -14 104 -57 59 -87 41 -231 -31 -257 -15 -6 -62 -16 -103 -22 -125 -19 -180 -70 -180 -164 0 -102 75 -174 172 -165 86 9 128 54 156 168 31 125 39 132 169 149 86 11 123 34 152 94 25 51 27 94 6 144 -31 73 -72 100 -167 109 -122 12 -146 38 -155 162 -4 51 -12 83 -27 105 -41 62 -134 85 -204 50z"/><path d="M615 1150 c-17 -5 -45 -23 -62 -40 -112 -110 -28 -293 128 -278 87 9 139 71 139 166 0 104 -105 182 -205 152z"/></g></svg>
